<svg id="Layer_1" data-name="Layer 1" xmlns="http://www.w3.org/2000/svg" viewBox="0 0 400 300"><title>#91_focus working_twocolour</title><ellipse cx="200.84" cy="262.79" rx="124.89" ry="16.88" fill="#e6e6e6" opacity="0.45"/><rect x="68.2" y="43.86" width="99.71" height="132.98" fill="#e6e6e6"/><rect x="227.22" y="65.41" width="99.71" height="73.25" fill="#e6e6e6"/><circle cx="93.11" cy="102.89" r="9.19" fill="#ffd200"/><rect x="239.62" y="107.57" width="76.55" height="21.9" fill="#c9c9c9"/><path d="M233.75,102s51.51-3.31,68.43,36.62H281.65Z" opacity="0.08"/><circle cx="93.11" cy="129.47" r="9.19" fill="#ffd200"/><circle cx="93.11" cy="156.05" r="9.19" fill="#ffd200"/><path d="M91.75,106.28h0a.73.73,0,0,1-.51-.26l-2.3-3a.68.68,0,0,1,.12-1,.69.69,0,0,1,1,.12l1.81,2.33,4.47-4.82a.67.67,0,0,1,1,0,.68.68,0,0,1,0,1l-5,5.42A.68.68,0,0,1,91.75,106.28Z" fill="#fff"/><path d="M91.75,132.86h0a.69.69,0,0,1-.51-.26l-2.3-3a.68.68,0,0,1,.12-1,.69.69,0,0,1,1,.12l1.81,2.34,4.47-4.83a.68.68,0,0,1,1,0,.69.69,0,0,1,0,1l-5,5.41A.68.68,0,0,1,91.75,132.86Z" fill="#fff"/><path d="M91.75,159.79h0a.7.7,0,0,1-.51-.27l-2.3-3a.68.68,0,1,1,1.08-.84l1.81,2.33,4.47-4.82a.67.67,0,0,1,1,0,.68.68,0,0,1,0,1l-5,5.42A.68.68,0,0,1,91.75,159.79Z" fill="#fff"/><rect x="107.07" y="97.64" width="48.93" height="11" fill="#c9c9c9"/><path d="M86.27,176.83s-8.78-54.13,61.87-72l19.77,72Z" opacity="0.08"/><rect x="107.07" y="123.97" width="48.93" height="11" fill="#c9c9c9"/><rect x="107.07" y="150.55" width="48.93" height="11" fill="#c9c9c9"/><rect x="167.91" y="203.37" width="64.18" height="54.51" fill="#e6e6e6"/><path d="M187.91,99.1s-41.56-4.15-46.7,22.41,34.38,69.41,34.38,69.41h50.16S305.19,85.53,187.91,99.1Z" fill="#7f5af0"/><path d="M187.88,107.8s-2.69,8.86,2.75,10.25,6.09-2.1,6.09-2.1,4.64,3.14,6.87-.92,0-10.31-4-12.35S187.88,107.8,187.88,107.8Z" fill="#fff"/><path d="M189,107.75a39.26,39.26,0,0,1,1.59,4.06c.6,1.91,2,4.6,5.2,4.31,4.93-.44,4.11-8.19,4.11-8.19s1-7.76-4.33-7.3C190.8,101.05,186.33,101.63,189,107.75Z" fill="#f4a28c"/><path d="M199.72,108.31s-.36-2.32,1.63-2.77S203.73,109.5,199.72,108.31Z" fill="#f4a28c"/><path d="M190.73,109.47s.09-2.35-1.94-2.57S186.88,111.12,190.73,109.47Z" fill="#f4a28c"/><path d="M222.11,114.9s-8.13,12.41-1.22,25.94,3.64,30.49-11.28,26.75c-14-3.5-21.4-11.36-40.74-11.32a3.38,3.38,0,0,0-3.28,4.15l6.14,26.08,3.86,4.42h50.16s21.27-30.4,24.6-49S222.11,114.9,222.11,114.9Z" opacity="0.08"/><path d="M188.79,106.9s-6.76-5.5-1.62-10.68c3.69-3.7,7.16-2.64,10.78-3.19a3.91,3.91,0,0,1,4.53,4.1,29.2,29.2,0,0,1-2.76,11.18,13.65,13.65,0,0,1-1.74-6.22S191.51,101.51,188.79,106.9Z" fill="#24285b"/><path d="M166.06,100.44C147.15,103,105.69,117.9,99.6,146.55s21.45,50.37,84,37.93v-8.15s-35.6,1.24-51.72-8.78c-8.56-5.32-7.08-18.23,2.33-21.85C149.3,139.9,184.49,122.38,166.06,100.44Z" fill="#7f5af0"/><path d="M166.06,100.44C147.15,103,105.69,117.9,99.6,146.55s21.45,50.37,84,37.93v-8.15s-35.6,1.24-51.72-8.78c-8.56-5.32-7.08-18.23,2.33-21.85C149.3,139.9,184.49,122.38,166.06,100.44Z" fill="#fff" opacity="0.2"/><path d="M227.19,100.44c18.91,2.58,60.37,17.46,66.47,46.11s-21.45,50.37-84.05,37.93v-8.15s35.61,1.24,51.72-8.78c8.56-5.32,7.08-18.23-2.32-21.85C244,139.9,208.76,122.38,227.19,100.44Z" fill="#7f5af0"/><path d="M227.19,100.44c18.91,2.58,60.37,17.46,66.47,46.11s-21.45,50.37-84.05,37.93v-8.15s35.61,1.24,51.72-8.78c8.56-5.32,7.08-18.23-2.32-21.85C244,139.9,208.76,122.38,227.19,100.44Z" fill="#fff" opacity="0.2"/><path d="M193.53,243.63s.47,3.31,3.2,4.12,2.91,3.68.26,3.87-8.44-4.35-8.44-4.35l1.28-5.05Z" fill="#7f5af0"/><path d="M206.2,243.63s-.47,3.31-3.21,4.12-2.9,3.68-.25,3.87,8.44-4.35,8.44-4.35l-1.28-5.05Z" fill="#7f5af0"/><path d="M179,203.37s3.07,25.52,2.44,38.48a9.88,9.88,0,0,0,5.52,9.33l.13.06a30.4,30.4,0,0,0,13.15,3.11c5.67.08,13.28.72,15.25,3.53h16.6V203.37Z" opacity="0.08"/><polygon points="182.73 178.13 176.48 150.99 219.63 150.99 212.61 180.26 212 186.06 183.64 184.48 182.73 178.13" fill="#ffd200"/><circle cx="198.43" cy="163.85" r="3.74" fill="#fff"/><path d="M175.33,194a10.52,10.52,0,0,1,4.94-9.38c3.32-2,8.1-3.11,13.27,1.56,9.59,8.67,3.35,58.07,3.35,58.07h-9.61s.76-20.18-2.29-34.41a14.64,14.64,0,0,0-6.94-9.24C176.69,199.74,175.47,197.89,175.33,194Z" fill="#24285b"/><path d="M224.67,194a10.48,10.48,0,0,0-4.94-9.38c-3.31-2-8.1-3.11-13.26,1.56-9.59,8.67-3.35,58.07-3.35,58.07h9.61S212,224.05,215,209.82a14.66,14.66,0,0,1,6.93-9.24C223.32,199.74,224.53,197.89,224.67,194Z" fill="#24285b"/><path d="M175.59,190.92s-3.35,9.27,3.42,12.45h44.44s6.64-2.82,2.3-12.45Z" fill="#24285b"/><circle cx="80.35" cy="55.74" r="3" fill="#24285b"/><circle cx="89.27" cy="55.74" r="3" fill="#7f5af0"/><circle cx="97.69" cy="55.74" r="3" fill="#ffd200"/><rect x="83.35" y="71.7" width="66" height="12.7" fill="#fff"/><rect x="129.95" y="71.7" width="19.4" height="12.7" fill="#24285b"/><circle cx="248.49" cy="86.77" r="11.51" fill="#fff"/><rect x="267.67" y="78.05" width="22.33" height="5.33" fill="#c9c9c9"/><rect x="267.67" y="87.65" width="22.33" height="5.33" fill="#c9c9c9"/><rect x="302.93" y="48.64" width="45.6" height="33.55" fill="#ffd200"/><path d="M335.9,67.68,334,66.18c0-.23,0-.5,0-.79a6.14,6.14,0,0,0,0-.78l1.92-1.5a.94.94,0,0,0,.22-1.2l-2-3.45a.91.91,0,0,0-1.15-.41l-2.26.91a7.18,7.18,0,0,0-1.36-.79l-.34-2.4a.93.93,0,0,0-.92-.8h-4a.92.92,0,0,0-.91.79l-.35,2.41a8.6,8.6,0,0,0-1.35.79l-2.27-.91a.93.93,0,0,0-1.14.41l-2,3.45a.93.93,0,0,0,.23,1.2l1.91,1.5a7.41,7.41,0,0,0,0,.78,7.59,7.59,0,0,0,0,.79l-1.91,1.5a.92.92,0,0,0-.23,1.19l2,3.45a.93.93,0,0,0,1.15.42l2.26-.91a8.89,8.89,0,0,0,1.36.79l.34,2.39a.93.93,0,0,0,.92.8h4A.92.92,0,0,0,329,75l.34-2.4a8.68,8.68,0,0,0,1.36-.79l2.26.91a1,1,0,0,0,.34.06.92.92,0,0,0,.81-.47l2-3.46A1,1,0,0,0,335.9,67.68Zm-9.8,1.19a3.48,3.48,0,1,1,3.47-3.48A3.48,3.48,0,0,1,326.1,68.87Z" fill="#fff"/><path d="M265.51,245.23s-8.31-2.27-10.12-10c0,0,12.88-2.6,13.25,10.69Z" fill="#7f5af0" opacity="0.58"/><path d="M266.53,244.4s-5.81-9.18-.69-17.76c0,0,9.79,6.22,5.44,17.78Z" fill="#7f5af0" opacity="0.73"/><path d="M268,244.41s3.07-9.7,12.34-11.53c0,0,1.74,6.29-6,11.56Z" fill="#7f5af0"/><polygon points="262 244.19 263.69 255.72 274.3 255.76 275.86 244.25 262 244.19" fill="#24285b"/><path d="M217,162.11s-8.36,20.12-34,17.47l.7,4.9L212,186.06l.61-5.8Z" opacity="0.08"/></svg>